<?xml version="1.0" encoding="UTF-8" standalone="no"?>
<svg
   xmlns:dc="http://purl.org/dc/elements/1.1/"
   xmlns:cc="http://creativecommons.org/ns#"
   xmlns:rdf="http://www.w3.org/1999/02/22-rdf-syntax-ns#"
   xmlns:svg="http://www.w3.org/2000/svg"
   xmlns="http://www.w3.org/2000/svg"
   id="svg921"
   version="1.1"
   viewBox="0 0 27.516839 32.54371"
   height="122.99986"
   width="104">
  <defs
     id="defs915" />
  <metadata
     id="metadata918">
    <rdf:RDF>
      <cc:Work
         rdf:about="">
        <dc:format>image/svg+xml</dc:format>
        <dc:type
           rdf:resource="http://purl.org/dc/dcmitype/StillImage" />
        <dc:title></dc:title>
      </cc:Work>
    </rdf:RDF>
  </metadata>
  <g
     transform="translate(0,-264.4547)"
     id="layer1">
    <path
       id="path826-7"
       d="m 6.7116356,296.36005 c -1.8332763,-0.2464 -4.1648625,-0.80773 -4.724984,-2.85033 -0.4869895,-2.7927 -0.089806,-5.64908 -0.042692,-8.46386 0.1353472,-2.66512 0.2268842,-5.33442 0.4852834,-7.9914 -1.1940138,-0.4852 -2.25958856,-1.50724 -2.25331073,-2.88313 -0.0658878,-1.51653 0.89014023,-2.82541 0.74198518,-4.3845 0.0384903,-1.58672 2.02130025,-1.79625 2.25700005,-3.19516 0.6231354,-1.38545 2.1062654,-1.83035 3.5148767,-1.5874 1.5224188,0.11698 3.0802106,-0.41784 4.5666598,0.0173 1.269046,0.96685 2.481994,-0.67644 3.851224,-0.21732 1.856244,0.30892 2.939535,2.04408 3.615716,3.6381 1.48018,0.3997 3.266335,1.21379 3.331593,3.12522 -0.181838,2.03476 2.131024,1.91593 3.201607,3.02825 1.862715,1.54596 1.873675,4.15746 1.731704,6.36613 -0.310016,2.77029 -1.68434,5.56956 -4.024002,7.16347 -0.683072,0.58474 -1.787886,0.55943 -2.472774,0.87506 -0.163895,1.86784 -0.04261,4.14026 -1.82393,5.28654 -1.015815,1.02111 -2.279701,1.72651 -3.736164,1.86704 -2.705601,0.46163 -5.4960049,0.57069 -8.2198254,0.20596 z m 10.2071914,-1.80047 c 1.49087,-0.41733 1.93151,-1.99245 1.773565,-3.37171 -0.02437,-4.54762 -0.05841,-9.1241 -0.731103,-13.6296 -0.354961,-1.88127 -2.055176,-0.7384 -2.893825,0.0697 -1.463481,0.34442 0.07496,3.66745 -2.28717,3.34416 -1.547338,-0.59363 -1.112126,-2.71314 -1.517856,-4.01803 -0.597225,-1.3237 -2.4861785,-0.43796 -3.3978169,0.16066 -1.1868789,0.85586 -3.0864549,-0.46158 -3.8855877,0.24177 -0.3689715,4.86422 -0.6028981,9.74249 -0.7020071,14.61937 -0.251634,1.83205 1.8018873,2.44768 3.2113473,2.70056 2.8873044,0.45538 5.8359244,0.27104 8.7432804,0.12152 0.564433,-0.0542 1.13932,-0.0808 1.687173,-0.23838 z m -8.5222549,-0.84813 c -1.765859,0.13976 -1.5656997,-1.92482 -1.7273685,-3.11954 0.030002,-1.02636 -0.5466582,-1.05687 -0.4742238,-0.0124 0.075301,1.12949 0.067149,3.93343 -1.6326968,2.40909 -0.612773,-1.81491 -0.2442049,-3.79113 -0.2875363,-5.67372 0.1250272,-2.83593 0.12159,-5.69226 0.498814,-8.50743 0.9290258,-0.92905 2.6870018,-0.24625 3.8293814,-0.99561 0.8878379,-0.72049 1.9922899,-0.55446 1.8702119,0.7784 0.168477,1.48025 0.786636,3.5378 2.597819,3.53932 1.435739,0.0373 2.090994,-1.59943 2.291011,-2.78516 0.06967,-1.25259 2.167287,-2.09436 1.84358,-0.24117 0.424262,4.53504 0.428354,9.09495 0.581274,13.64433 -1.668187,1.18472 -3.864997,1.01049 -5.810526,1.13332 -1.195073,0.01 -2.3912636,-0.0419 -3.5797399,-0.1694 z m 14.2800029,-8.06719 c 1.882122,-1.90849 2.497415,-4.82957 1.949421,-7.39883 -0.454281,-1.19083 -1.928302,-2.71933 -3.240837,-1.73545 -1.323378,0.48696 -1.940437,1.57514 -1.581012,2.96724 0.154088,2.26951 0.151928,4.57586 0.615874,6.80619 0.701999,0.77048 1.732588,-0.0926 2.256554,-0.63915 z m -9.401998,-8.80883 c -0.06076,-0.7379 -0.02219,-3.35441 1.023085,-1.90348 0.06395,0.85558 0.790115,1.713 1.106393,0.41575 1.026857,-1.52627 2.681505,1.04948 4.156147,0.66365 1.662708,0.0658 1.685029,-2.04189 1.572323,-3.24654 0.01151,-1.4659 -1.086863,-3.44721 -2.800852,-2.54526 -1.176971,-0.33144 -1.010427,-2.58793 -1.999744,-3.49858 -0.901713,-1.37506 -2.868991,-0.86386 -3.620154,0.38911 -1.059003,0.89149 -1.750992,-1.7843 -3.1565196,-1.20007 -0.8168316,0.12501 -1.4488498,0.69203 -2.1215605,1.12399 -0.6588018,-0.84272 -2.3046849,-1.44362 -2.8808665,-0.25906 -0.1970581,1.24726 -0.797494,2.05212 -1.9935248,2.39519 -1.3299746,1.0408 0.4772157,2.80938 -0.8449432,3.79384 -1.18373573,1.2714 0.4070838,3.33745 1.962976,2.59436 1.2618177,0.0576 2.5225011,1.08351 3.7793941,0.29193 0.9444386,-0.43371 1.1781477,-2.21909 2.322905,-0.93783 0.8673995,0.42726 1.7722205,-0.64505 2.3812715,-0.73293 0.369139,1.5313 0.210126,3.14923 0.61579,4.66677 0.678803,0.36975 0.403788,-1.6346 0.49788,-2.01084 z m 11.559167,-1.30351 c 0.06059,-0.85255 -2.334359,-1.35432 -1.000612,-0.39975 0.198808,0.0865 0.846129,0.83211 1.000612,0.39975 z"
       style="stroke-width:0.22235717" />
  </g>
</svg>
