<?xml version="1.0" encoding="UTF-8" standalone="no"?>
<svg
   xmlns:dc="http://purl.org/dc/elements/1.1/"
   xmlns:cc="http://creativecommons.org/ns#"
   xmlns:rdf="http://www.w3.org/1999/02/22-rdf-syntax-ns#"
   xmlns:svg="http://www.w3.org/2000/svg"
   xmlns="http://www.w3.org/2000/svg"
   id="svg921"
   version="1.1"
   viewBox="0 0 60.589964 36.777038"
   height="138.99986"
   width="229">
  <defs
     id="defs915" />
  <metadata
     id="metadata918">
    <rdf:RDF>
      <cc:Work
         rdf:about="">
        <dc:format>image/svg+xml</dc:format>
        <dc:type
           rdf:resource="http://purl.org/dc/dcmitype/StillImage" />
        <dc:title></dc:title>
      </cc:Work>
    </rdf:RDF>
  </metadata>
  <g
     transform="translate(0,-260.22119)"
     id="layer1">
    <path
       id="path826-1"
       d="m 15.546743,295.91138 c -3.525352,-0.74391 -7.1689847,-1.58522 -10.2491637,-3.52164 -2.365915,-2.53624 3.21103,-4.47392 1.176097,-7.09133 -2.023842,-1.3024 -4.892,-2.31007 -5.201652,-5.08544 -0.34434196,-3.34597 0.421432,-6.99091 2.574606,-9.63734 1.516899,-1.75423 5.500064,-0.99183 5.025381,-4.23022 0.140051,-2.81686 3.1783997,-3.75018 5.4929437,-3.97557 2.092913,-1.2145 4.457728,-0.91378 6.686452,-0.30784 2.108383,1.00803 4.148896,1.61631 6.518201,1.40526 1.845292,1.87123 4.191536,0.15781 6.430071,0.4473 2.043781,-1.13274 4.239484,-1.91594 6.50081,-2.75708 2.146523,0.19284 4.388295,0.69589 6.46342,1.20654 1.510229,1.27994 4.030184,1.65891 3.499311,4.28178 1.579151,-0.43272 3.873264,-1.38764 5.313744,0.36125 2.303403,2.42993 3.30141,5.89902 3.504841,9.17925 0.083,2.89382 -2.659727,4.67888 -4.94367,5.83665 -1.33613,1.54806 0.275261,4.90054 1.962342,5.9599 1.723941,2.55162 -1.933042,4.03112 -3.781493,4.90906 -4.786102,2.1569 -10.113353,3.81779 -15.411498,3.12242 -2.548356,-0.0897 -2.842778,-2.36243 -2.122803,-4.28276 -0.546743,-2.05321 -0.125691,-5.54965 -1.90558,-6.55633 -1.21779,1.25281 -4.440998,2.2896 -3.462984,-0.63516 0.493875,-1.93165 0.410724,-4.38729 -1.737328,-5.22285 -0.660975,3.83345 -0.811196,7.74195 -1.294399,11.59894 0.823255,1.96586 0.997786,4.61729 -1.816092,4.78817 -3.037799,0.45709 -6.167538,0.55277 -9.221557,0.20704 z m 30.59718,-1.6161 c 3.178689,-0.95823 6.35255,-2.24773 9.003877,-4.27636 1.044325,-2.37117 -2.547927,0.15817 -3.569024,0.41023 -4.80612,2.236 -10.136052,2.9391 -15.351824,3.40154 -1.550801,1.37223 2.675327,1.32769 3.618631,1.28581 2.118686,-0.0596 4.239877,-0.30846 6.29834,-0.82122 z m -20.566268,0.0497 c 1.017597,-1.65011 -2.932278,-0.89228 -3.997725,-1.1493 -4.694659,0.0727 -9.453708,-0.44357 -13.8017957,-2.31778 -1.135967,-0.90823 -2.690406,-0.0639 -1.117297,1.01479 3.14882,1.45504 6.5451107,2.58844 10.0217327,2.88039 2.939898,0.0796 6.044717,0.38503 8.895085,-0.4281 z m -0.521473,-2.8299 c 0.862745,-2.1755 0.546284,-4.69676 0.999246,-6.99916 0.236212,-2.52018 0.657344,-5.03239 0.826765,-7.5509 -1.165827,-2.12936 -1.188427,2.87672 -1.361408,3.92733 -0.349542,2.76154 -0.220061,5.62092 -0.972266,8.30927 -0.820295,2.46283 -5.164312,0.85491 -4.283897,-1.55365 0.934916,-4.3073 1.940212,-8.72859 1.56796,-13.15731 -2.152753,-0.69187 -1.66544,3.48002 -2.148513,5.02431 -0.560904,3.37017 -0.355633,6.86685 -1.264128,10.16757 -2.731397,1.84058 -5.288953,-1.80809 -3.565182,-4.26153 0.448892,-2.07395 0.985966,-4.21514 0.728994,-6.34559 -2.492036,-1.35472 -1.461049,3.3706 -1.932812,4.76293 0.390692,2.61622 -1.168007,6.56742 -4.2739667,4.12735 -1.224517,-1.68971 0.542764,-3.92673 0.424543,-5.8685 0.2610207,-1.03182 0.4706927,-5.65048 -0.331812,-2.54487 -0.710504,3.25038 -1.510749,6.51708 -1.787551,9.83469 2.067223,1.51457 4.8369497,1.66164 7.2778247,2.25253 3.20899,0.63542 6.597101,1.02945 9.783931,0.0707 l 0.312292,-0.1952 z m 20.579108,-0.20074 c 2.575967,-0.72634 5.185424,-1.53453 7.473806,-2.95374 1.065388,-2.20739 -0.969625,-4.94206 -1.283417,-7.30911 -0.629093,-1.31678 -1.011106,-4.82549 -2.167472,-4.77674 0.259621,3.24744 1.818169,6.19856 2.494403,9.34004 -0.1421,3.1858 -5.065572,2.40411 -4.683217,-0.7065 -0.783987,-2.21243 -0.363722,-5.20505 -2.079995,-6.86164 -2.141982,1.12507 0.285802,4.04028 0.418973,5.8414 0.565315,1.91478 1.851171,5.87557 -1.454479,5.80088 -2.650787,-0.20242 -2.150484,-3.84821 -2.754378,-5.7556 -0.684592,-3.09194 -1.176667,-6.3025 -2.479164,-9.19986 -2.322664,-1.74312 -0.977006,2.55391 -0.746386,3.60843 0.751247,3.15201 1.43685,6.34883 2.662447,9.35321 1.077766,3.02426 -4.631359,4.14355 -4.413446,0.76663 -0.961526,-3.50629 -1.207778,-7.20668 -2.341596,-10.65043 -1.465108,1.32999 0.274912,4.52509 0.381423,6.46765 0.636155,2.59889 1.135056,5.25557 2.086403,7.75905 2.130423,0.7213 4.484377,0.0404 6.661782,-0.23563 0.746114,-0.14001 1.48869,-0.30194 2.224313,-0.48804 z m -22.48424,-2.19552 c 1.194628,-3.35612 1.140697,-7.02275 1.61014,-10.5323 0.08,-1.5002 1.089657,-4.43312 -1.181307,-4.54737 -0.983326,3.95553 -1.291408,8.05538 -2.092043,12.05458 -0.328002,1.24132 -0.412123,4.40259 1.66321,3.02509 z m 16.502743,0.20553 c 1.140327,-1.95911 -0.880155,-4.6184 -1.146978,-6.78723 -0.892366,-2.53506 -1.178607,-5.27855 -2.252044,-7.73588 -1.819562,0.72101 -0.33007,4.46115 -0.264781,6.25983 0.571384,2.70413 1.077877,5.44905 1.999683,8.05775 0.398692,0.53114 1.130156,0.42377 1.66412,0.20553 z m -22.033257,-0.43899 c 0.815155,-4.84277 1.058776,-9.77556 1.884491,-14.61659 -1.085106,-1.97303 -1.799281,2.07014 -1.74897,3.03096 -1.51995,2.84535 -1.427159,6.16533 -2.000333,9.26767 -0.394922,1.5036 -0.121081,3.49014 1.864812,2.31796 z m 27.801104,-0.43755 c 0.914676,-1.91518 -0.993919,-4.23951 -1.228079,-6.30061 -0.402222,-2.19312 -1.405449,-4.15103 -2.292814,-6.15195 0.355123,-1.21619 -1.974301,-3.84502 -1.515979,-1.35788 1.099027,4.24395 1.988901,8.54045 3.019928,12.79979 0.203611,1.06553 0.987716,2.04894 2.016944,1.01065 z m -33.020927,-2.28575 c 0.283492,-2.82223 0.674965,-5.6821 0.454603,-8.51503 -1.944552,-0.67904 -1.777401,3.36821 -2.333184,4.77687 -0.274692,1.67634 -1.7337407,6.31604 1.529879,4.82506 0.242342,-0.31512 0.273332,-0.71483 0.348702,-1.0869 z m 38.121009,0.28544 c 1.204295,-1.75336 -0.436354,-4.21198 -0.758515,-6.16053 -0.372993,-1.18737 -1.52311,-5.18147 -2.706059,-3.16098 0.423445,2.95606 0.954046,5.9111 1.759911,8.78819 0.203021,0.81877 1.087209,0.82381 1.704663,0.53332 z m -18.895469,-1.80376 c 1.001637,-2.04305 0.851125,-4.69079 0.446604,-6.89792 0.01339,-1.78237 3.016449,-1.06019 2.176963,-3.32618 0.606074,-3.067 3.969285,-0.5474 5.684045,-2.2902 1.221877,-1.25463 1.952682,-0.68253 2.319275,0.75573 1.708488,0.79315 0.0335,4.67492 2.743376,3.61325 1.250878,-1.61868 5.234813,-0.63354 3.831513,-3.91055 0.265193,-2.359 -0.977126,-4.81375 0.179582,-6.9458 -0.800934,-1.03779 -2.599955,-1.66013 -3.763714,-2.43608 -2.099463,0.59666 -4.524779,-1.67573 -6.690441,0.26872 -2.443085,-0.42538 -2.645538,3.27473 -5.081931,1.90844 -2.600066,-0.39352 -3.566934,1.99296 -4.75173,3.52103 -0.617385,1.79055 1.807341,3.82865 1.035517,5.94585 -1.677082,2.15691 -0.01381,4.42922 1.281989,6.19523 0.140018,0.70359 -1.285881,5.14096 0.588952,3.59848 z M 7.2359813,283.44509 c -0.300662,-1.84333 -3.551802,-2.18406 -3.510132,-4.57033 -0.368002,-2.22809 0.126651,-4.98857 1.995683,-6.41374 1.335398,-0.0126 3.884324,-0.0978 1.859361,-1.81904 -2.478535,-0.82632 -4.123336,2.26923 -4.75659,4.29507 -0.807785,2.47651 -1.153947,5.74103 1.175488,7.52915 0.735454,0.53729 2.533576,1.94956 3.23619,0.97889 z m 0.754825,-2.7969 c 0.750364,-2.2916 1.374828,-5.34271 -0.768695,-7.10107 -2.513796,-0.0937 -2.868308,3.845 -2.240394,5.72238 0.331232,0.83312 2.361505,2.85984 3.009089,1.37869 z M 55.15525,280.26265 c 2.115773,-0.82361 3.266069,-3.11706 2.862926,-5.31537 -0.36659,-2.81927 -1.433688,-5.83112 -3.772521,-7.59373 -2.041794,-1.03552 -5.088813,1.79955 -3.857736,3.68265 1.475349,-2.05664 4.815549,-2.75939 5.543055,0.34885 0.960615,2.08333 1.370958,4.85042 -0.458962,6.60403 -0.816025,0.62034 -3.662494,2.39064 -1.5236,2.81167 0.420952,-0.13411 0.813014,-0.34135 1.206838,-0.5381 z m -0.687984,-2.8163 c 1.654699,-1.46464 1.113837,-4.245 0.1981,-6.00627 -1.970761,-2.71246 -4.424787,1.93033 -3.507621,3.81898 0.379642,1.78759 1.221617,4.13496 3.309521,2.18729 z m -37.995067,-0.3667 c 0.447023,-1.50394 0.0871,-5.31228 2.263984,-5.22206 1.952912,1.73267 4.85004,-0.47665 6.44335,1.31887 1.126677,-0.0885 3.355331,3.0465 3.573333,0.77046 -0.677216,-2.07734 -3.06598,-4.63029 -0.601225,-6.46659 1.702041,-2.5999 -3.161879,-3.68388 -4.765659,-2.11691 -1.289538,-2.36149 -4.569459,-2.45082 -7.026594,-2.43969 -1.336458,1.08574 -2.537246,1.14624 -4.128106,0.9632 -2.8892177,0.81973 -1.915572,4.04265 -3.0057087,5.99913 0.618704,1.93946 -0.487773,4.90139 1.8705017,5.90496 1.54757,0.40644 3.25176,0.12066 4.290297,1.5448 0.384142,0.0692 0.766775,-0.0539 1.085827,-0.25617 z"
       style="fill:#000000;stroke-width:0.3196449" />
  </g>
</svg>
