<?xml version="1.0" encoding="UTF-8" standalone="no"?>
<svg
   xmlns:dc="http://purl.org/dc/elements/1.1/"
   xmlns:cc="http://creativecommons.org/ns#"
   xmlns:rdf="http://www.w3.org/1999/02/22-rdf-syntax-ns#"
   xmlns:svg="http://www.w3.org/2000/svg"
   xmlns="http://www.w3.org/2000/svg"
   id="svg896"
   version="1.1"
   viewBox="0 0 51.064566 47.625008"
   height="180"
   width="193">
  <defs
     id="defs890" />
  <metadata
     id="metadata893">
    <rdf:RDF>
      <cc:Work
         rdf:about="">
        <dc:format>image/svg+xml</dc:format>
        <dc:type
           rdf:resource="http://purl.org/dc/dcmitype/StillImage" />
        <dc:title></dc:title>
      </cc:Work>
    </rdf:RDF>
  </metadata>
  <g
     transform="translate(0,-249.37463)"
     id="layer1">
    <path
       id="path879"
       d="m 8.2645003,296.49646 c -7.76826017,-0.028 -7.1404601,0.002 -7.31662007,-0.36764 -0.10452,-0.22033 -0.10427,-0.34955 6.9e-4,-0.57157 0.17324997,-0.36511 0.17302997,-0.36508 2.21194997,-0.36529 h 1.8190401 v -9.53426 -9.53428 l -1.8190401,-1.7e-4 c -2.03892,-2e-4 -2.0387,-1.5e-4 -2.21194997,-0.36528 -0.10242,-0.21575 -0.10513,-0.33928 -0.0129,-0.56057 0.15293997,-0.36604 0.0237,-0.35067 3.18839007,-0.37866 l 2.8374498,-0.0254 0.025,-2.0323 c 0.0239,-1.93974 0.03,-2.04259 0.13164,-2.25812 0.1811102,-0.38359 0.4132501,-0.65185 0.7497001,-0.86635 l 0.3229102,-0.20586 v -0.97856 c 0,-0.88304 0.01,-0.99923 0.1025498,-1.19045 0.23192,-0.47906 0.9075699,-0.4892 1.1605899,-0.0174 0.0801,0.14939 0.0917,0.29868 0.0917,1.18311 v 1.01214 l 0.26487,0.14947 c 0.3323399,0.18759 0.6113999,0.4936 0.7821399,0.85769 l 0.13222,0.28203 0.025,2.03228 0.025,2.03231 19.670703,0.0251 c 10.818878,0.0143 19.672868,0.0308 19.67557,0.0377 0.0021,0.007 0.05,0.0519 0.10501,0.10021 0.313338,0.2747 0.28506,0.8458 -0.053,1.07045 -0.085,0.0566 -0.456499,0.0764 -1.8132,0.0963 l -1.706121,0.025 v 9.50918 9.50916 l 1.706121,0.025 c 1.840531,0.0271 1.83706,0.0265 2.00139,0.30472 0.105259,0.17815 0.103661,0.51974 -0.0021,0.70066 -0.0463,0.0785 -0.15362,0.17858 -0.238361,0.22248 -0.139808,0.0724 -1.760148,0.0807 -17.51647,0.0908 -9.54931,0.006 -20.502171,0 -24.3396709,-0.0143 z m 7.8926297,-2.32039 1.0166,-1.01568 v -4.70487 -4.70486 l -1.51796,-7.9e-4 c -1.12436,-5.3e-4 -1.60604,-0.0195 -1.85767,-0.0728 -0.9279,-0.19663 -1.67665,-0.92173 -1.91682,-1.85621 -0.33862,-1.3177 0.45321,-2.67565 1.78413,-3.05973 0.24927,-0.0719 0.72465,-0.0794 4.29043,-0.0672 3.95485,0.0129 4.014,0.0152 4.29276,0.12079 0.75743,0.28682 1.349781,0.91738 1.56973,1.67091 0.0974,0.33359 0.10316,1.04001 0.0111,1.38342 -0.1681,0.62838 -0.72142,1.31336 -1.28776,1.59423 -0.4996,0.24777 -0.82967,0.28569 -2.49526,0.28664 l -1.51796,8e-4 v 4.70395 4.70396 l 1.01571,1.0166 1.01568,1.01661 h 5.77163 5.771609 l 1.116352,-1.1172 1.116351,-1.11717 -0.01291,-4.69119 -0.01291,-4.69119 -1.731219,-0.0275 c -1.01941,-0.0161 -1.793319,-0.0494 -1.88224,-0.0807 -0.76663,-0.27085 -1.3667,-0.85775 -1.637811,-1.60185 -0.155278,-0.42612 -0.155919,-1.22866 -0.0011,-1.6519 0.24711,-0.67648 0.836642,-1.29759 1.452592,-1.53031 0.511698,-0.19336 0.814808,-0.20562 4.704519,-0.19048 l 3.76224,0.0148 0.32049,0.11573 c 1.17729,0.4252 1.899361,1.58942 1.717799,2.76962 -0.141108,0.91713 -0.73764,1.66115 -1.622729,2.02393 -0.249251,0.10218 -0.36802,0.11019 -1.996229,0.1338 l -1.731232,0.0251 -0.01291,4.6912 -0.01291,4.69118 1.116671,1.11751 1.116669,1.11751 3.71344,-0.0129 3.713451,-0.0129 v -9.50916 -9.50918 l -19.482521,-0.0129 -19.4825204,-0.0129 v 9.50088 c 0,5.22547 0.014999,9.51593 0.0334,9.53434 0.0185,0.0185 1.9996801,0.0334 4.4028704,0.0334 h 4.36944 z m 2.09546,0.61426 -0.39908,-0.40144 -0.36498,0.36256 c -0.20074,0.19939 -0.36499,0.38003 -0.36499,0.40144 0,0.0213 0.34384,0.0388 0.76407,0.0388 h 0.76407 z m 17.638391,0.36277 c 0,-0.0213 -0.20321,-0.24098 -0.451612,-0.48822 l -0.45162,-0.44953 -0.451627,0.44953 c -0.248391,0.24724 -0.451631,0.46693 -0.451631,0.48822 0,0.0212 0.406469,0.0387 0.903258,0.0387 0.496782,0 0.903232,-0.0175 0.903232,-0.0387 z M 21.74724,282.33754 c 0.10686,-0.0319 0.28531,-0.13608 0.39645,-0.23119 0.35862,-0.30696 0.50393,-0.72976 0.39987,-1.1635 -0.0823,-0.34331 -0.28264,-0.60089 -0.60658,-0.78008 l -0.27212,-0.15054 h -3.8137 -3.81371 l -0.20072,0.10846 c -0.94498,0.51086 -0.9005,1.77166 0.0775,2.19593 0.14882,0.0646 0.70275,0.0754 3.90602,0.0771 2.69271,0.001 3.78678,-0.0143 3.927,-0.0563 z m 17.28002,-0.22569 c 0.262771,-0.14182 0.446981,-0.34089 0.57301,-0.6193 0.249719,-0.55163 7.94e-4,-1.2129 -0.57301,-1.52256 -0.199769,-0.10773 -0.218409,-0.10847 -3.939159,-0.12289 -2.748061,-0.01 -3.79507,7.9e-4 -3.952211,0.0444 -0.26933,0.0742 -0.650521,0.40605 -0.770829,0.67094 -0.289891,0.63817 0.0944,1.41587 0.808648,1.63672 0.0691,0.0213 1.819363,0.0348 3.889312,0.0301 3.751879,-0.009 3.76415,-0.009 3.964239,-0.11721 z M 9.4336701,272.98698 c 0.0144,-2.04215 0.01,-2.07323 -0.35122,-2.24956 -0.15789,-0.0772 -0.21586,-0.0825 -0.3630298,-0.0339 -0.0964,0.0318 -0.2206601,0.11562 -0.2763001,0.1864 -0.0974,0.12376 -0.1011899,0.19965 -0.1011899,2.03037 v 1.90178 l 0.5394298,-0.0143 0.53944,-0.0143 z m 2.8725599,1.44759 c -0.45357,-0.14943 -0.63938,-0.61914 -0.40015,-1.01152 0.1847,-0.30297 0.24275,-0.31062 2.35718,-0.31062 2.11445,0 2.17249,0.007 2.3572,0.31062 0.20755,0.34043 0.0823,0.79617 -0.26383,0.96045 -0.15578,0.074 -0.40031,0.0833 -2.07586,0.0797 -1.0446,-10e-4 -1.93314,-0.015 -1.97454,-0.0288 z m 7.19255,-9.95635 c -0.13264,-0.0656 -0.23809,-0.16467 -0.28853,-0.27099 -0.16846,-0.35499 -0.1012,-0.53282 0.60421,-1.59538 1.49854,-2.25756 3.23588,-3.7351 4.86439,-4.13698 l 0.323,-0.0797 v -3.43014 -3.43015 l -11.77983,-9e-5 c -11.1157498,-5e-5 -11.7895298,-0.004 -11.9518998,-0.0878 -0.24952,-0.1272 -0.37991997,-0.32956 -0.37991997,-0.58952 0,-0.25998 0.13035997,-0.4623 0.37991997,-0.58955 0.1631,-0.0832 1.43304,-0.0878 24.3982398,-0.0878 20.542602,-6e-5 24.251491,0.01 24.392731,0.0695 0.514199,0.21484 0.514199,1.00081 0,1.21567 -0.14038,0.0585 -2.01444,0.0696 -11.93546,0.0696 h -11.7689 v 3.42928 3.42926 l 0.413979,0.10932 c 1.719701,0.45424 3.74197,2.32478 5.207121,4.8164 0.33492,0.56958 0.28466,0.9505 -0.155019,1.1747 -0.160952,0.0821 -0.557541,0.0877 -6.143522,0.0877 -5.93042,4e-5 -5.97289,-6.6e-4 -6.18051,-0.10341 z m 10.66734,-1.4834 c -0.316809,-0.46048 -0.861269,-1.10726 -1.339551,-1.59134 -1.354169,-1.37058 -2.603119,-1.91426 -3.774549,-1.64306 -0.87969,0.20367 -2.01231,1.00119 -2.956489,2.08179 -0.407241,0.46608 -1.057921,1.29965 -1.057921,1.35528 0,0.0161 2.08983,0.0293 4.64409,0.0293 h 4.644091 z"
       style="stroke-width:0.05018033" />
  </g>
</svg>
