<?xml version="1.0" encoding="UTF-8" standalone="no"?>
<svg
   xmlns:dc="http://purl.org/dc/elements/1.1/"
   xmlns:cc="http://creativecommons.org/ns#"
   xmlns:rdf="http://www.w3.org/1999/02/22-rdf-syntax-ns#"
   xmlns:svg="http://www.w3.org/2000/svg"
   xmlns="http://www.w3.org/2000/svg"
   id="svg921"
   version="1.1"
   viewBox="0 0 11.906324 37.835368"
   height="142.99986"
   width="45">
  <defs
     id="defs915" />
  <metadata
     id="metadata918">
    <rdf:RDF>
      <cc:Work
         rdf:about="">
        <dc:format>image/svg+xml</dc:format>
        <dc:type
           rdf:resource="http://purl.org/dc/dcmitype/StillImage" />
        <dc:title></dc:title>
      </cc:Work>
    </rdf:RDF>
  </metadata>
  <g
     transform="translate(0,-259.16261)"
     id="layer1">
    <path
       id="path826-4"
       d="m 3.8106809,296.60916 c -1.20197,-0.0855 -2.81447396,-0.3319 -2.488128,-1.93038 -0.271777,-6.00675 -0.201751,-12.02298 -0.287786,-18.03439 0.03198,-0.54868 -0.16596496,-1.16779 0.294309,-1.58527 0.818078,-1.21418 1.842157,-2.39572 1.914923,-3.93112 0.287009,-2.76087 0.638905,-5.53545 0.561713,-8.31511 -0.351651,-0.93948 -0.01422,-1.92418 0.141962,-2.8681 1.437451,0.002 2.925951,-0.292 4.3204499,0.13021 0.50929,1.36181 0.15774,2.86922 0.32876,4.29333 0.17009,2.58577 0.26632,5.19281 0.72336,7.74658 0.36522,1.37859 1.4960602,2.39995 2.1330002,3.62081 -0.0697,5.93554 -0.0179,11.87378 -0.20253,17.80696 0.0146,1.2963 -0.22046,3.16783 -1.9566302,2.96733 -1.8162,0.23574 -3.6612739,0.31344 -5.4834029,0.0992 z"
       style="fill:#000000;stroke-width:0.27462807" />
  </g>
</svg>
